<svg xmlns="http://www.w3.org/2000/svg" version="1.1" xmlns:xlink="http://www.w3.org/1999/xlink" xmlns:svgjs="http://svgjs.dev/svgjs" width="1500" height="1500" viewBox="0 0 1500 1500"><rect width="1500" height="1500" fill="#ffffff"></rect><g transform="matrix(0.6666666666666666,0,0,0.6666666666666666,249.39393939393938,456.1647019060538)"><svg viewBox="0 0 396 233" data-background-color="#ffffff" preserveAspectRatio="xMidYMid meet" height="882" width="1500" xmlns="http://www.w3.org/2000/svg" xmlns:xlink="http://www.w3.org/1999/xlink"><g id="tight-bounds" transform="matrix(1,0,0,1,0.2400000000000091,-0.06526453080023487)"><svg viewBox="0 0 395.52 233.13052906160047" height="233.13052906160047" width="395.52"><g><svg viewBox="0 0 397.4976 234.29618170690847" height="233.13052906160047" width="395.52"><g><rect width="397.4976" height="4.785230597031979" x="0" y="124.7395923675028" fill="#0080ff" opacity="1" stroke-width="0" stroke="transparent" fill-opacity="1" class="rect-qz-0" data-fill-palette-color="primary" rx="1%" id="qz-0" data-palette-color="#0080ff"></rect></g><g><rect width="397.4976" height="4.785230597031979" x="0" y="135.78821379834628" fill="#0080ff" opacity="1" stroke-width="0" stroke="transparent" fill-opacity="1" class="rect-qz-1" data-fill-palette-color="primary" rx="1%" id="qz-1" data-palette-color="#0080ff"></rect></g><g transform="matrix(1,0,0,1,0.9887999999999693,153.10022606300123)"><svg viewBox="0 0 395.52000000000004 81.19595564390724" height="81.19595564390724" width="395.52000000000004"><g id="textblocktransform"><svg viewBox="0 0 395.52000000000004 81.19595564390724" height="81.19595564390724" width="395.52000000000004" id="textblock"><g><svg viewBox="0 0 395.52000000000004 53.06249541513318" height="53.06249541513318" width="395.52000000000004"><g transform="matrix(1,0,0,1,0,0)"><svg width="395.52000000000004" viewBox="4.5 -36.45 348.47 46.754253402765" height="53.06249541513318" data-palette-color="#0080ff"><path d="M4.85-2.4L4.85-2.4Q4.85-4.35 4.93-11.4 5-18.45 4.93-22.98 4.85-27.5 4.5-32.2L4.5-32.2Q4.5-32.5 4.55-32.8L4.55-32.8Q4.5-33 4.5-33.15L4.5-33.15Q4.5-34.2 5.2-34.95 5.9-35.7 6.95-35.7L6.95-35.7Q20.85-35.95 27.3-35.7L27.3-35.7Q28.35-35.65 29.05-34.9 29.75-34.15 29.7-33.1 29.65-32.05 28.9-31.35 28.15-30.65 27.1-30.7L27.1-30.7Q20.8-30.95 9.6-30.75L9.6-30.75Q9.9-26.05 9.95-20.4L9.95-20.4Q13.25-20.4 24.8-20.55L24.8-20.55Q25.85-20.55 26.6-19.83 27.35-19.1 27.35-18.07 27.35-17.05 26.63-16.3 25.9-15.55 24.9-15.55L24.9-15.55Q13.3-15.4 9.95-15.4L9.95-15.4Q9.95-13.75 9.9-9.28 9.85-4.8 9.85-2.4L9.85-2.4Q9.85-1.35 9.13-0.63 8.4 0.1 7.35 0.1 6.3 0.1 5.58-0.63 4.85-1.35 4.85-2.4L4.85-2.4ZM45.15-0.35L45.15-0.35Q38.55 1.25 34.6-3L34.6-3Q31.45-6.25 30.7-11.35L30.7-11.35Q30.15-15.35 31.65-18.95L31.65-18.95Q33.45-23.55 37.35-25.75L37.35-25.75Q38.15-26.2 39.35-26.4L39.35-26.4Q39.4-26.4 40.05-26.45L40.05-26.45Q40.3-26.5 40.45-26.55L40.45-26.55Q41.2-26.7 41.95-26.4L41.95-26.4Q42.15-26.4 42.9-26.38 43.65-26.35 43.9-26.33 44.15-26.3 44.77-26.23 45.4-26.15 45.8-26.05L45.8-26.05 46.75-25.7Q47.35-25.5 47.9-25.2 48.45-24.9 49.1-24.5L49.1-24.5Q52.35-22.3 53.6-18.32 54.85-14.35 54.25-11.9L54.25-11.9Q53.8-9.2 52.65-6.88 51.5-4.55 49.47-2.75 47.45-0.95 45.15-0.35L45.15-0.35ZM43.6-5.55L43.6-5.55Q45.75-5.85 47.27-7.78 48.8-9.7 49.27-11.85 49.75-14 48.92-16.57 48.1-19.15 46.3-20.3L46.3-20.3Q45.75-20.7 45.4-20.88 45.05-21.05 44.57-21.18 44.1-21.3 43.82-21.3 43.55-21.3 42.65-21.35 41.75-21.4 41.05-21.45L41.05-21.45Q40.9-21.45 40.7-21.5L40.7-21.5Q40.15-21.45 40.1-21.45L40.1-21.45 39.75-21.35Q37.55-20.15 36.37-17.53 35.2-14.9 35.7-12.1L35.7-12.1Q36.25-8.7 38.15-6.95L38.15-6.95Q40.2-5.05 43.6-5.55L43.6-5.55ZM73.55-0.35L73.55-0.35Q66.95 1.25 63-3L63-3Q59.85-6.25 59.1-11.35L59.1-11.35Q58.55-15.35 60.05-18.95L60.05-18.95Q61.85-23.55 65.75-25.75L65.75-25.75Q66.55-26.2 67.75-26.4L67.75-26.4Q67.8-26.4 68.45-26.45L68.45-26.45Q68.7-26.5 68.85-26.55L68.85-26.55Q69.6-26.7 70.35-26.4L70.35-26.4Q70.55-26.4 71.3-26.38 72.05-26.35 72.3-26.33 72.55-26.3 73.17-26.23 73.8-26.15 74.2-26.05L74.2-26.05 75.15-25.7Q75.75-25.5 76.3-25.2 76.85-24.9 77.5-24.5L77.5-24.5Q80.75-22.3 82-18.32 83.25-14.35 82.65-11.9L82.65-11.9Q82.2-9.2 81.05-6.88 79.9-4.55 77.87-2.75 75.85-0.95 73.55-0.35L73.55-0.35ZM72-5.55L72-5.55Q74.15-5.85 75.67-7.78 77.2-9.7 77.67-11.85 78.15-14 77.32-16.57 76.5-19.15 74.7-20.3L74.7-20.3Q74.15-20.7 73.8-20.88 73.45-21.05 72.97-21.18 72.5-21.3 72.22-21.3 71.95-21.3 71.05-21.35 70.15-21.4 69.45-21.45L69.45-21.45Q69.3-21.45 69.1-21.5L69.1-21.5Q68.55-21.45 68.5-21.45L68.5-21.45 68.15-21.35Q65.95-20.15 64.77-17.53 63.6-14.9 64.1-12.1L64.1-12.1Q64.65-8.7 66.55-6.95L66.55-6.95Q68.6-5.05 72-5.55L72-5.55ZM107.99 0L107.99 0Q107.19 0 106.54-0.45 105.89-0.9 105.64-2.15L105.64-2.15Q103.49-0.6 101.14-0.15L101.14-0.15Q97.89 0.45 95.19-0.5 92.49-1.45 90.64-3.65L90.64-3.65Q87.29-7.55 87.34-13.55L87.34-13.55Q87.39-18.95 90.84-22.85L90.84-22.85Q94.99-27.5 101.74-26.3L101.74-26.3Q104.04-25.9 105.24-25.25L105.24-25.25 105.14-33.25Q105.14-34.3 105.87-35.05 106.59-35.8 107.62-35.8 108.64-35.8 109.39-35.08 110.14-34.35 110.14-33.35L110.14-33.35Q110.49-10.55 110.49-2.5L110.49-2.5Q110.49-1.45 109.77-0.73 109.04 0 107.99 0L107.99 0ZM100.24-5.05L100.24-5.05Q101.19-5.25 102.24-5.75 103.29-6.25 103.72-6.58 104.14-6.9 104.37-7.15 104.59-7.4 104.89-7.73 105.19-8.05 105.44-8.75L105.44-8.75Q105.44-15.1 105.34-18.85L105.34-18.85Q105.29-18.85 105.24-18.9L105.24-18.9Q103.14-20.7 103.14-20.75L103.14-20.75Q102.59-21.1 100.84-21.4L100.84-21.4Q96.84-22.1 94.59-19.5L94.59-19.5Q92.34-17.05 92.34-13.55L92.34-13.55Q92.29-9.4 94.44-6.88 96.59-4.35 100.24-5.05L100.24-5.05ZM117.04-2.4L117.04-2.4Q116.94-6.15 117.07-13.9 117.19-21.65 117.19-24.05L117.19-24.05Q117.19-25.1 117.92-25.83 118.64-26.55 119.69-26.55 120.74-26.55 121.47-25.83 122.19-25.1 122.19-24.05L122.19-24.05Q122.19-21.65 122.07-13.95 121.94-6.25 122.04-2.5L122.04-2.5Q122.04-1.45 121.34-0.7 120.64 0.05 119.59 0.05 118.54 0.05 117.79-0.65 117.04-1.35 117.04-2.4L117.04-2.4ZM121.69-35.2L121.69-35.2Q122.54-34.35 122.54-33.1 122.54-31.85 121.69-31 120.84-30.15 119.59-30.15 118.34-30.15 117.49-31 116.64-31.85 116.64-33.1 116.64-34.35 117.49-35.2 118.34-36.05 119.62-36.08 120.89-36.1 121.69-35.2L121.69-35.2ZM141.04 0.25L141.04 0.25Q137.34 0 134.59-1.25 131.84-2.5 130.39-4.4 128.94-6.3 128.29-7.9 127.64-9.5 127.49-11.08 127.34-12.65 127.64-15.15L127.64-15.15Q127.99-17.25 129.11-19.3 130.24-21.35 132.11-22.98 133.99-24.6 136.64-25.48 139.29-26.35 142.29-26L142.29-26Q145.19-25.65 147.24-24.43 149.29-23.2 150.74-21.3L150.74-21.3Q151.99-19.7 152.26-18.9 152.54-18.1 152.76-17.4 152.99-16.7 153.14-16.2 153.29-15.7 153.41-15.18 153.54-14.65 153.59-13.95L153.59-13.95Q153.64-13 153.24-12.2 152.84-11.4 152.04-10.95L152.04-10.95Q151.39-10.7 150.64-10.7L150.64-10.7 142.09-10.55Q133.09-10.5 133.09-10.35L133.09-10.35 132.94-10.35Q133.59-7.8 135.66-6.35 137.74-4.9 141.34-4.65L141.34-4.65Q143.29-4.55 144.59-4.85L144.59-4.85Q146.04-5.25 146.69-5.58 147.34-5.9 148.29-6.45L148.29-6.45Q149.24-6.8 150.19-6.35 151.14-5.9 151.49-4.95 151.84-4 151.41-3.1 150.99-2.2 150.09-1.7L150.09-1.7Q149.29-1.25 148.44-0.93 147.59-0.6 145.94-0.15 144.29 0.3 141.04 0.25L141.04 0.25ZM133.04-15.25L133.04-15.25Q135.94-15.4 148.09-15.55L148.09-15.55Q147.64-17.05 146.64-18.4L146.64-18.4Q144.64-20.7 141.69-21.05L141.69-21.05Q138.59-21.45 136.24-19.73 133.89-18 133.04-15.25L133.04-15.25ZM176.23 0.1L176.23 0.1Q175.48 0.15 174.83-0.25L174.83-0.25Q174.03-0.5 173.56-1.18 173.08-1.85 173.08-2.7L173.08-2.7Q173.08-4.3 173.33-18.35L173.33-18.35Q173.38-20.65 173.18-25.7L173.18-25.7Q172.98-30.65 173.13-33.4L173.13-33.4Q173.18-34.45 173.96-35.15 174.73-35.85 175.73-35.8L175.73-35.8 175.93-35.8Q176.38-36.05 176.88-36.1L176.88-36.1Q179.18-36.3 180.53-36.38 181.88-36.45 184.33-36.45 186.78-36.45 188.53-36.13 190.28-35.8 192.41-35.05 194.53-34.3 196.18-33.1L196.18-33.1Q199.68-30.55 201.31-26.58 202.93-22.6 202.78-18.2L202.78-18.2Q202.63-13.95 200.88-10L200.88-10Q199.08-6.1 195.93-3.6L195.93-3.6Q192.18-0.6 185.78-0.1L185.78-0.1Q183.88 0.05 180.78 0.05L180.78 0.05Q177.43 0.05 176.23 0.1L176.23 0.1ZM178.13-4.95L180.78-4.95Q183.73-4.95 185.38-5.1L185.38-5.1Q189.93-5.45 192.53-7.5L192.53-7.5Q194.73-9.25 196.06-12.18 197.38-15.1 197.48-18.4L197.48-18.4Q197.63-21.7 196.48-24.5L196.48-24.5Q195.28-27.35 192.98-29L192.98-29Q191.13-30.35 188.58-30.95L188.58-30.95Q185.98-31.55 183.53-31.48 181.08-31.4 178.08-31.15L178.08-31.15Q178.03-29.7 178.18-25.9L178.18-25.9Q178.38-20.45 178.33-18.25L178.33-18.25Q178.33-16.75 178.28-14.08 178.23-11.4 178.18-9.15 178.13-6.9 178.13-4.95L178.13-4.95ZM219.93 0.25L219.93 0.25Q216.23 0 213.48-1.25 210.73-2.5 209.28-4.4 207.83-6.3 207.18-7.9 206.53-9.5 206.38-11.08 206.23-12.65 206.53-15.15L206.53-15.15Q206.88-17.25 208.01-19.3 209.13-21.35 211.01-22.98 212.88-24.6 215.53-25.48 218.18-26.35 221.18-26L221.18-26Q224.08-25.65 226.13-24.43 228.18-23.2 229.63-21.3L229.63-21.3Q230.88-19.7 231.16-18.9 231.43-18.1 231.66-17.4 231.88-16.7 232.03-16.2 232.18-15.7 232.31-15.18 232.43-14.65 232.48-13.95L232.48-13.95Q232.53-13 232.13-12.2 231.73-11.4 230.93-10.95L230.93-10.95Q230.28-10.7 229.53-10.7L229.53-10.7 220.98-10.55Q211.98-10.5 211.98-10.35L211.98-10.35 211.83-10.35Q212.48-7.8 214.56-6.35 216.63-4.9 220.23-4.65L220.23-4.65Q222.18-4.55 223.48-4.85L223.48-4.85Q224.93-5.25 225.58-5.58 226.23-5.9 227.18-6.45L227.18-6.45Q228.13-6.8 229.08-6.35 230.03-5.9 230.38-4.95 230.73-4 230.31-3.1 229.88-2.2 228.98-1.7L228.98-1.7Q228.18-1.25 227.33-0.93 226.48-0.6 224.83-0.15 223.18 0.3 219.93 0.25L219.93 0.25ZM211.93-15.25L211.93-15.25Q214.83-15.4 226.98-15.55L226.98-15.55Q226.53-17.05 225.53-18.4L225.53-18.4Q223.53-20.7 220.58-21.05L220.58-21.05Q217.48-21.45 215.13-19.73 212.78-18 211.93-15.25L211.93-15.25ZM241.98-2.4L241.98-2.4Q241.93-1.35 241.18-0.65 240.43 0.05 239.38 0 238.33-0.05 237.63-0.8 236.93-1.55 236.98-2.6L236.98-2.6Q237.18-9.25 237.18-12.7 237.18-16.15 237.08-23 236.98-29.85 236.98-33.3L236.98-33.3Q236.98-34.35 237.7-35.08 238.43-35.8 239.48-35.8 240.53-35.8 241.25-35.08 241.98-34.35 241.98-33.3L241.98-33.3Q241.98-29.85 242.08-23.5 242.18-17.15 242.15-11.98 242.13-6.8 241.98-2.4L241.98-2.4ZM248.43-2.4L248.43-2.4Q248.33-6.15 248.45-13.9 248.58-21.65 248.58-24.05L248.58-24.05Q248.58-25.1 249.3-25.83 250.03-26.55 251.08-26.55 252.13-26.55 252.85-25.83 253.58-25.1 253.58-24.05L253.58-24.05Q253.58-21.65 253.45-13.95 253.33-6.25 253.43-2.5L253.43-2.5Q253.43-1.45 252.73-0.7 252.03 0.05 250.98 0.05 249.93 0.05 249.18-0.65 248.43-1.35 248.43-2.4L248.43-2.4ZM253.08-35.2L253.08-35.2Q253.93-34.35 253.93-33.1 253.93-31.85 253.08-31 252.23-30.15 250.98-30.15 249.73-30.15 248.88-31 248.03-31.85 248.03-33.1 248.03-34.35 248.88-35.2 249.73-36.05 251-36.08 252.28-36.1 253.08-35.2L253.08-35.2ZM271.42 10.25L271.42 10.25Q268.52 10.5 265.85 9.6 263.17 8.7 261.42 6.45L261.42 6.45Q260.77 5.6 260.35 4.35 259.92 3.1 260.42 2.18 260.92 1.25 261.9 0.95 262.87 0.65 263.8 1.15 264.72 1.65 265.02 2.6L265.02 2.6Q265.12 3 265.27 3.68 265.42 4.35 266.37 5L266.37 5Q268.62 5.8 271.32 5.7L271.32 5.7Q273.77 5.6 275.07 4.67 276.37 3.75 276.72 2.55L276.72 2.55Q277.22 0.85 277.52-2.85L277.52-2.85Q275.62-0.85 271.77-0.45L271.77-0.45Q268.47-0.3 265.85-1.38 263.22-2.45 261.7-4.45 260.17-6.45 259.47-8.9L259.47-8.9Q258.77-11.25 258.97-14.8L258.97-14.8Q259.37-20.3 263.27-23.65L263.27-23.65Q267.62-27.1 273.77-26.1L273.77-26.1Q276.02-25.35 277.32-24.3L277.32-24.3Q277.37-26.3 279.22-26.75L279.22-26.75Q280.42-26.85 281.15-26.2 281.87-25.55 282.02-24.55L282.02-24.55Q282.57-18.45 282.67-9.65L282.67-9.65Q282.72-4.65 282.37-1.3L282.37-1.3Q281.97 3.7 280.02 6.18 278.07 8.65 276.12 9.33 274.17 10 271.42 10.25L271.42 10.25ZM271.42-5.55L271.42-5.55Q273.27-5.5 274.27-6L274.27-6Q277.17-6.9 277.62-10.75L277.62-10.75Q277.87-13.7 277.37-16.4L277.37-16.4Q277.02-18.1 275.32-19.35L275.32-19.35Q274.32-20.15 272.77-20.4L272.77-20.4Q268.77-21.1 266.62-19.2L266.62-19.2Q264.57-17.55 264.27-14.35L264.27-14.35Q264.02-10.15 265.92-7.8L265.92-7.8Q267.87-5.5 271.42-5.55L271.42-5.55ZM310.17-2.4L310.17-2.4Q310.12-1.35 309.37-0.65 308.62 0.05 307.6 0.03 306.57 0 305.87-0.75 305.17-1.5 305.17-2.5L305.17-2.5Q305.17-2.55 305.47-7.2L305.47-7.2Q305.77-12.3 305.57-14.95L305.57-14.95Q305.12-21.2 300.97-21.5L300.97-21.5Q298.77-21.65 297.35-20.83 295.92-20 294.57-17.95L294.57-17.95Q294.47-17.8 294.17-17.25L294.17-17.25Q294.52-6.45 294.52-2.45L294.52-2.45Q294.52-1.4 293.8-0.68 293.07 0.05 292.02 0.05 290.97 0.05 290.25-0.68 289.52-1.4 289.52-2.45L289.52-2.45Q289.52-4.75 289.12-18L289.12-18Q288.82-27.95 289.02-33.8L289.02-33.8Q289.07-34.8 289.82-35.52 290.57-36.25 291.6-36.2 292.62-36.15 293.35-35.4 294.07-34.65 294.02-33.6L294.02-33.6Q293.97-32.25 293.97-23.15L293.97-23.15Q297.17-26.85 301.47-26.5L301.47-26.5Q309.77-25.8 310.57-15.35L310.57-15.35Q310.72-12.45 310.65-10.3 310.57-8.15 310.37-5.55 310.17-2.95 310.17-2.4L310.17-2.4ZM324.87-0.15L324.87-0.15Q324.57-0.25 323.64-0.45 322.72-0.65 322.04-0.9 321.37-1.15 320.49-1.63 319.62-2.1 318.92-2.93 318.22-3.75 317.72-4.9L317.72-4.9Q317.17-6.25 317.02-10.2L317.02-10.2Q316.87-13.25 316.97-18.05L316.97-18.05Q316.97-18.95 317.02-21.05L317.02-21.05 316.62-21Q315.57-20.9 314.77-21.55 313.97-22.2 313.84-23.23 313.72-24.25 314.37-25.05 315.02-25.85 316.02-26L316.02-26 317.17-26.1Q317.22-28.75 317.32-31.45L317.32-31.45Q317.37-32.5 318.12-33.2 318.87-33.9 319.92-33.85 320.97-33.8 321.67-33.05 322.37-32.3 322.32-31.25L322.32-31.25 322.17-26.5 323.82-26.6Q324.87-26.65 325.64-26 326.42-25.35 326.49-24.3 326.57-23.25 325.92-22.48 325.27-21.7 324.22-21.6L324.22-21.6 322.02-21.5Q321.97-19.1 321.97-18L321.97-18Q321.87-13.3 322.02-10.35L322.02-10.35Q322.12-7.35 322.32-6.9 322.52-6.45 322.62-6.28 322.72-6.1 322.99-5.93 323.27-5.75 323.57-5.7 323.87-5.65 324.69-5.43 325.52-5.2 326.47-4.85L326.47-4.85Q327.42-4.55 327.89-3.63 328.37-2.7 328.04-1.73 327.72-0.75 326.79-0.28 325.87 0.2 324.87-0.15L324.87-0.15ZM340.42 0L340.42 0Q336.57 0.05 334.32-0.1L334.32-0.1Q332.87-0.2 331.97-0.4L331.97-0.4Q331.32-0.55 330.82-0.75L330.82-0.75Q329.72-1.3 329.27-2.35L329.27-2.35Q328.97-3.2 329.27-4.1L329.27-4.1Q329.37-4.4 329.52-4.6L329.52-4.6Q329.62-4.8 329.82-5.05L329.82-5.05 330.37-5.75 331.92-7.35 334.22-9.65Q338.32-13.9 341.07-17L341.07-17Q343.22-19.7 344.12-21.5L344.12-21.5Q342.22-21.55 340.57-21.55L340.57-21.55Q333.97-21.4 332.12-21.6L332.12-21.6Q331.12-21.75 330.47-22.55 329.82-23.35 329.94-24.38 330.07-25.4 330.87-26.05 331.67-26.7 332.72-26.6L332.72-26.6Q334.32-26.4 338.44-26.48 342.57-26.55 344.92-26.5L344.92-26.5 347.07-26.5Q347.17-26.45 347.27-26.45L347.27-26.45 347.57-26.35Q348.12-26.2 348.52-25.8L348.52-25.8Q349.87-24.5 349.62-22.35L349.62-22.35Q349.47-21.1 348.72-19.5L348.72-19.5Q347.62-17.2 345.02-14.4L345.02-14.4Q342.12-10.6 337.82-6.15L337.82-6.15 336.67-5Q338.12-4.95 340.37-5L340.37-5Q342.97-5.05 346.47-5.2L346.47-5.2Q350.07-5.35 350.47-5.35L350.47-5.35Q351.52-5.35 352.24-4.63 352.97-3.9 352.97-2.85 352.97-1.8 352.24-1.07 351.52-0.35 350.47-0.35L350.47-0.35Q350.07-0.35 346.49-0.2 342.92-0.05 340.42 0L340.42 0Z" opacity="1" transform="matrix(1,0,0,1,0,0)" fill="#0080ff" class="wordmark-text-0" data-fill-palette-color="primary" id="text-0"></path></svg></g></svg></g><g transform="matrix(1,0,0,1,75.54432000000001,65.58927708275615)"><svg viewBox="0 0 244.43136 15.60667856115108" height="15.60667856115108" width="244.43136"><g transform="matrix(1,0,0,1,0,0)"><svg width="244.43136" viewBox="0.85 -35 555.9399999999999 35.5" height="15.60667856115108" data-palette-color="#0080ff"><path d="M37.15-33.5L5.85-33.5 5.85-35 39.3-35 26.55 0.05 20.05-17.75 13.6 0.05 0.85-35 2.45-35 13.6-4.35 20.05-22.15 26.55-4.35 37.15-33.5ZM63.2-3.95L64.3-2.95Q61.55 0.5 55.3 0.5 49.05 0.5 46.35-3.05 43.65-6.6 43.65-14.5 43.65-22.4 46.35-25.95 49.05-29.5 55.3-29.5L55.3-29.5Q62.55-29.5 65.15-24.75L65.15-24.75 52.9-14.5 50.55-14.5 63.2-25.05Q61-28 55.3-28L55.3-28Q52.8-28 51.1-27.48 49.4-26.95 47.97-25.53 46.55-24.1 45.85-21.38 45.15-18.65 45.15-14.5 45.15-10.35 45.85-7.63 46.55-4.9 47.97-3.48 49.4-2.05 51.1-1.53 52.8-1 55.3-1L55.3-1Q61-1 63.2-3.95L63.2-3.95ZM71.7-25.9L71.7-35 73.2-35 73.2-25.9 71.7-25.9ZM94.29-14.55L94.29-14.55 101.09 0 99.44 0 92.44-15Q92.54-15.05 93.32-15.43 94.09-15.8 94.39-15.98 94.69-16.15 95.39-16.6 96.09-17.05 96.44-17.48 96.79-17.9 97.22-18.48 97.64-19.05 97.84-19.78 98.04-20.5 98.04-21.35L98.04-21.35Q98.04-24.5 95.04-26 92.04-27.5 87.59-27.5L87.59-27.5 83.59-27.5 83.59 0 82.09 0 82.09-29 87.59-29Q93.49-29 96.52-26.95 99.54-24.9 99.54-21.35L99.54-21.35Q99.54-19.05 97.99-17.28 96.44-15.5 94.29-14.55ZM126.19-3.95L127.29-2.95Q124.54 0.5 118.29 0.5 112.04 0.5 109.34-3.05 106.64-6.6 106.64-14.5 106.64-22.4 109.34-25.95 112.04-29.5 118.29-29.5L118.29-29.5Q125.54-29.5 128.14-24.75L128.14-24.75 115.89-14.5 113.54-14.5 126.19-25.05Q123.99-28 118.29-28L118.29-28Q115.79-28 114.09-27.48 112.39-26.95 110.97-25.53 109.54-24.1 108.84-21.38 108.14-18.65 108.14-14.5 108.14-10.35 108.84-7.63 109.54-4.9 110.97-3.48 112.39-2.05 114.09-1.53 115.79-1 118.29-1L118.29-1Q123.99-1 126.19-3.95L126.19-3.95ZM151.74-35L151.74 0 150.24 0 150.24-35 151.74-35ZM162.93 0L161.43 0 161.43-29 162.93-29 179.23-2.75 179.23-29 180.73-29 180.73 0 179.23 0 162.93-26.3 162.93 0ZM206.68-1.5L226.08-1.5 226.08 0 205.18 0 205.18-35 206.68-35 206.68-1.5ZM246.18-27.48Q244.48-28 241.98-28 239.48-28 237.78-27.48 236.08-26.95 234.65-25.53 233.23-24.1 232.53-21.38 231.83-18.65 231.83-14.5 231.83-10.35 232.53-7.63 233.23-4.9 234.65-3.48 236.08-2.05 237.78-1.53 239.48-1 241.98-1 244.48-1 246.18-1.53 247.88-2.05 249.3-3.48 250.73-4.9 251.43-7.63 252.13-10.35 252.13-14.5 252.13-18.65 251.43-21.38 250.73-24.1 249.3-25.53 247.88-26.95 246.18-27.48ZM250.93-3.05Q248.23 0.5 241.98 0.5 235.73 0.5 233.03-3.05 230.33-6.6 230.33-14.5 230.33-22.4 233.03-25.95 235.73-29.5 241.98-29.5 248.23-29.5 250.93-25.95 253.63-22.4 253.63-14.5 253.63-6.6 250.93-3.05ZM281.42-29L283.02-29 270.52 0.5 258.02-29 259.62-29 270.52-3.35 281.42-29ZM306.97-3.95L308.07-2.95Q305.32 0.5 299.07 0.5 292.82 0.5 290.12-3.05 287.42-6.6 287.42-14.5 287.42-22.4 290.12-25.95 292.82-29.5 299.07-29.5L299.07-29.5Q306.32-29.5 308.92-24.75L308.92-24.75 296.67-14.5 294.32-14.5 306.97-25.05Q304.77-28 299.07-28L299.07-28Q296.57-28 294.87-27.48 293.17-26.95 291.75-25.53 290.32-24.1 289.62-21.38 288.92-18.65 288.92-14.5 288.92-10.35 289.62-7.63 290.32-4.9 291.75-3.48 293.17-2.05 294.87-1.53 296.57-1 299.07-1L299.07-1Q304.77-1 306.97-3.95L306.97-3.95ZM363.22-33.5L331.92-33.5 331.92-35 365.37-35 352.62 0.05 346.12-17.75 339.67 0.05 326.92-35 328.52-35 339.67-4.35 346.12-22.15 352.62-4.35 363.22-33.5ZM370.96 0L370.96-29 372.46-29 372.46 0 370.96 0ZM378.21-29L400.71-29 400.71-27.5 390.21-27.5 390.21 0 388.71 0 388.71-27.5 378.21-27.5 378.21-29ZM424.46-29L424.46 0 422.96 0 422.96-14.5 407.96-14.5 407.96 0 406.46 0 406.46-29 407.96-29 407.96-16 422.96-16 422.96-29 424.46-29ZM466.85-19.8L466.85-18.3 452-18.3 467.3-33.5 450.4-33.5 450.4 0 448.9 0 448.9-35 470.95-35 455.65-19.8 466.85-19.8ZM490.8-27.48Q489.1-28 486.6-28 484.1-28 482.4-27.48 480.7-26.95 479.28-25.53 477.85-24.1 477.15-21.38 476.45-18.65 476.45-14.5 476.45-10.35 477.15-7.63 477.85-4.9 479.28-3.48 480.7-2.05 482.4-1.53 484.1-1 486.6-1 489.1-1 490.8-1.53 492.5-2.05 493.93-3.48 495.35-4.9 496.05-7.63 496.75-10.35 496.75-14.5 496.75-18.65 496.05-21.38 495.35-24.1 493.93-25.53 492.5-26.95 490.8-27.48ZM495.55-3.05Q492.85 0.5 486.6 0.5 480.35 0.5 477.65-3.05 474.95-6.6 474.95-14.5 474.95-22.4 477.65-25.95 480.35-29.5 486.6-29.5 492.85-29.5 495.55-25.95 498.25-22.4 498.25-14.5 498.25-6.6 495.55-3.05ZM521.1-27.48Q519.4-28 516.9-28 514.4-28 512.7-27.48 511-26.95 509.57-25.53 508.15-24.1 507.45-21.38 506.75-18.65 506.75-14.5 506.75-10.35 507.45-7.63 508.15-4.9 509.57-3.48 511-2.05 512.7-1.53 514.4-1 516.9-1 519.4-1 521.1-1.53 522.8-2.05 524.22-3.48 525.65-4.9 526.35-7.63 527.05-10.35 527.05-14.5 527.05-18.65 526.35-21.38 525.65-24.1 524.22-25.53 522.8-26.95 521.1-27.48ZM525.85-3.05Q523.15 0.5 516.9 0.5 510.65 0.5 507.95-3.05 505.25-6.6 505.25-14.5 505.25-22.4 507.95-25.95 510.65-29.5 516.9-29.5 523.15-29.5 525.85-25.95 528.55-22.4 528.55-14.5 528.55-6.6 525.85-3.05ZM540.59 0L540.59 0 536.79 0 536.79-29 540.59-29Q548-29 552.39-25.1 556.79-21.2 556.79-14.5 556.79-7.8 552.39-3.9 548 0 540.59 0ZM538.29-1.5L540.59-1.5Q547.34-1.5 551.32-4.95 555.29-8.4 555.29-14.5 555.29-20.6 551.32-24.05 547.34-27.5 540.59-27.5L540.59-27.5 538.29-27.5 538.29-1.5Z" opacity="1" transform="matrix(1,0,0,1,0,0)" fill="#0080ff" class="slogan-text-1" data-fill-palette-color="secondary" id="text-1"></path></svg></g></svg></g></svg></g></svg></g><g transform="matrix(1,0,0,1,128.5586063346056,0)"><svg viewBox="0 0 140.38038733078878 112.21281069987981" height="112.21281069987981" width="140.38038733078878"><g><svg xmlns="http://www.w3.org/2000/svg" xmlns:xlink="http://www.w3.org/1999/xlink" xmlns:a="http://ns.adobe.com/AdobeSVGViewerExtensions/3.0/" version="1.1" x="0" y="0" viewBox="0 -0.000004254926823626937 79.24081622916955 63.341004254926816" enable-background="new -12.98 -15.909 99 100" xml:space="preserve" height="112.21281069987981" width="140.38038733078878" class="icon-icon-0" data-fill-palette-color="accent" id="icon-0"><path d="M0 35.995c0 8.982 17.964 21.957 17.964 23.753s0 3.593 0 3.593h35.927c0 0 0-2.195 0-3.793 0-1.596 17.964-14.57 17.964-23.553C68.262 35.833 5.788 35.833 0 35.995z" fill="#010c80" data-fill-palette-color="accent"></path><path d="M71.855 31.443c0-2.103 0-3.631 0-3.631H0c0 0 0 1.528 0 3.631H71.855z" fill="#010c80" data-fill-palette-color="accent"></path><path d="M63.565 13.776c-3.166 1.385-6.242 2.799-7.349 3.576-0.179 0.475-0.36 0.898-0.536 1.312-0.191 0.445-0.388 0.906-0.59 1.451l-1.404 3.776-2.562-3.109c-0.132-0.161-0.386-0.43-0.598-0.43-0.037 0-0.079 0.005-0.126 0.014l-1.737 0.348-0.793-1.585c-0.02-0.039-0.039-0.072-0.057-0.099l-1.921 0.96-1.046-2.07c-0.086-0.15-0.479-0.515-0.844-0.515-0.323 0-0.693 0.322-0.885 0.513L41.936 19.1l-1.496-0.748c-0.146-0.072-0.543-0.243-1.056-0.243-0.889 0-1.75 0.538-2.562 1.601l-3.982-2.309c1.604-3.807 5.562-7.721 8.255-8.988 1.887-0.889 3.612-1.32 5.273-1.32 2.28 0 4.043 0.795 5.708 1.646 0.549-0.204 1.318-0.539 2.221-0.955-1.726-1.678-3.793-2.63-5.861-1.596-1.797-3.593-10.18-6.587-17.365 0.599-3.593-1.796-13.173-1.796-14.97 7.186-1.796-1.796-5.389-1.796-7.186 1.796-5.389-1.796-7.186 9.58-7.186 9.58h68.263C69.993 25.348 68.083 17.392 63.565 13.776z" fill="#010c80" data-fill-palette-color="accent"></path><path fill-rule="evenodd" clip-rule="evenodd" d="M75.622 0.135c-3.402 0.842-20.666 10.515-23.787 11.089-2.838-1.463-5.215-2.847-9.751-0.712-2.103 0.99-3.093 2.042-5.018 5.195 2.788-1.834 3.202-0.035 4.411 0.57 2.42-2.419 4.839-0.605 5.443 0.604 1.21-0.604 2.42 0 3.024 1.209 1.317-0.263 2.291 0.392 2.97 1.216 0.494-1.328 0.926-2.125 1.322-3.314 2.172-2.347 20.719-9.087 23.545-11.247C80.61 2.587 79.023-0.708 75.622 0.135z" fill="#010c80" data-fill-palette-color="accent"></path></svg></g></svg></g><g></g></svg></g><defs></defs></svg><rect width="395.52" height="233.13052906160047" fill="none" stroke="none" visibility="hidden"></rect></g></svg></g></svg>